<svg xmlns="http://www.w3.org/2000/svg" viewBox="0 0 24 24" fill="#007aff">
  <circle cx="12" cy="12" r="10" fill="#007aff"/>
  <path d="M12 2C6.48 2 2 6.48 2 12s4.48 10 10 10 10-4.48 10-10S17.52 2 12 2zm0 18c-4.41 0-8-3.59-8-8s3.59-8 8-8 8 3.59 8 8-3.59 8-8 8z" fill="#fff" opacity="0.2"/>
  <path d="M12 14c-1.1 0-2-.9-2-2s.9-2 2-2 2 .9 2 2-.9 2-2 2zm0 6c-3.31 0-6-2.69-6-6 0-4.41 7-13 7-13s7 8.59 7 13c0 3.31-2.69 6-6 6zm0-10c-.55 0-1-.45-1-1s.45-1 1-1 1 .45 1 1-.45 1-1 1z" fill="#fff"/>
  <path d="M12 8c-1.66 0-3 1.34-3 3s1.34 3 3 3 3-1.34 3-3-1.34-3-3-3zm0 4c-.55 0-1-.45-1-1s.45-1 1-1 1 .45 1 1-.45 1-1 1z" fill="#fff"/>
  <path d="M17 14c0-1.1-.9-2-2-2h-2c-1.1 0-2 .9-2 2s.9 2 2 2h2c1.1 0 2-.9 2-2zm-3 2h-2v-2h2v2z" fill="#fff"/>
</svg>