<svg xmlns="http://www.w3.org/2000/svg" viewBox="0 0 24 24" fill="#007aff">
  <circle cx="12" cy="12" r="10" fill="#007aff"/>
  <path d="M12 2C6.48 2 2 6.48 2 12s4.48 10 10 10 10-4.48 10-10S17.52 2 12 2zm0 18c-4.41 0-8-3.59-8-8s3.59-8 8-8 8 3.59 8 8-3.59 8-8 8z" fill="#fff" opacity="0.2"/>
  <path d="M19 3h-1V1h-2v2H8V1H6v2H5c-1.11 0-1.99.9-1.99 2L3 19c0 1.1.89 2 2 2h14c1.1 0 2-.9 2-2V5c0-1.1-.9-2-2-2zm0 16H5V8h14v11z" fill="#fff"/>
  <path d="M7 10h3v2H7zM7 14h3v2H7zM12 10h3v2h-3zM12 14h3v2h-3zM17 10h3v2h-3zM17 14h3v2h-3z" fill="#fff"/>
  <path d="M7 8h10v2H7z" fill="#fff"/>
  <path d="M8 16h8v2H8z" fill="#fff"/>
</svg>