<svg xmlns="http://www.w3.org/2000/svg" viewBox="0 0 24 24" fill="#ff3b30">
  <circle cx="12" cy="12" r="10" fill="#ff3b30"/>
  <path d="M12 2C6.48 2 2 6.48 2 12s4.48 10 10 10 10-4.48 10-10S17.52 2 12 2zm0 18c-4.41 0-8-3.59-8-8s3.59-8 8-8 8 3.59 8 8-3.59 8-8 8z" fill="#fff" opacity="0.2"/>
  <path d="M15 3H6c-.83 0-1.54.5-1.84 1.22l-3.02 7.05c-.09.23-.14.47-.14.73v1.91l.01.01L1 14c0 1.1.9 2 2 2h6v3c0 .55.45 1 1 1h2c.55 0 1-.45 1-1v-3h6c1.1 0 2-.9 2-2v-2h-8V3zm-6 12H4.06l2.11-5h4V15zm3-2h8v-2h-8v2zm9-10h-2v3h-3c-.55 0-1 .45-1 1v7h2v-7h3V8c0-.55.45-1 1-1z" fill="#fff"/>
  <path d="M12 8c-2.21 0-4 1.79-4 4s1.79 4 4 4 4-1.79 4-4-1.79-4-4-4zm0 6c-1.1 0-2-.9-2-2s.9-2 2-2 2 .9 2 2-.9 2-2 2z" fill="#fff" opacity="0.7"/>
</svg>