<svg xmlns="http://www.w3.org/2000/svg" viewBox="0 0 24 24" fill="#ff6b6b">
  <circle cx="12" cy="12" r="10" fill="#ff6b6b"/>
  <path d="M12 2C6.48 2 2 6.48 2 12s4.48 10 10 10 10-4.48 10-10S17.52 2 12 2zm0 18c-4.41 0-8-3.59-8-8s3.59-8 8-8 8 3.59 8 8-3.59 8-8 8zm0-14c-3.31 0-6 2.69-6 6s2.69 6 6 6 6-2.69 6-6-2.69-6-6-6zm0 10c-2.21 0-4-1.79-4-4s1.79-4 4-4 4 1.79 4 4-1.79 4-4 4z" fill="#fff" opacity="0.3"/>
  <path d="M12 8l-3 9h2.5l1-3h3l1 3h2.5l-3-9h-3z" fill="#fff"/>
  <path d="M12 10l1.5 4.5h-3L12 10z" fill="#ff6b6b"/>
</svg>